# xmcd CD database file generated by Grip 2.94
# 
# Track frame offsets:
#       182
#       19362
#       39342
#       58172
# 
# Disc length: 995 seconds
# 
# Revision: 3
# Processed by: cddbd v1.4b41PL1 Copyright (c) Steve Scherf et al.
# Submitted via: Grip 2.94
# 
DISCID=2f03e104
DTITLE=Brownstone - If You Love Me
DYEAR=1900
DGENRE=
TTITLE0=If You Love Me (Smooth out Remix)
TTITLE1=If You Jazz Me (Remix)
TTITLE2=Characters Funk Remix
TTITLE3=Lp Version (Radio Edition)
EXTD=
EXTT0=
EXTT1=
EXTT2=
EXTT3=
PLAYORDER=
